<?xml version="1.0" encoding="UTF-8"?>
<!DOCTYPE svg PUBLIC "-//W3C//DTD SVG 1.1//EN" "http://www.w3.org/Graphics/SVG/1.1/DTD/svg11.dtd">
<svg xmlns="http://www.w3.org/2000/svg" version="1.1" width="500px" height="500px" style="shape-rendering:geometricPrecision; text-rendering:geometricPrecision; image-rendering:optimizeQuality; fill-rule:evenodd; clip-rule:evenodd" xmlns:xlink="http://www.w3.org/1999/xlink">
<g><path style="opacity:0.004" fill="#000000" d="M 140.5,3.5 C 140.897,2.47498 141.563,2.30831 142.5,3C 141.906,3.46434 141.239,3.63101 140.5,3.5 Z"/></g>
<g><path style="opacity:0.004" fill="#000000" d="M 416.5,4.5 C 417.833,5.16667 417.833,5.16667 416.5,4.5 Z"/></g>
<g><path style="opacity:0.004" fill="#000000" d="M 71.5,6.5 C 72.8333,7.16667 72.8333,7.16667 71.5,6.5 Z"/></g>
<g><path style="opacity:0.004" fill="#000000" d="M 436.5,7.5 C 437.833,8.16667 437.833,8.16667 436.5,7.5 Z"/></g>
<g><path style="opacity:0.004" fill="#000000" d="M 384.5,14.5 C 385.833,15.1667 385.833,15.1667 384.5,14.5 Z"/></g>
<g><path style="opacity:0.004" fill="#000000" d="M 441.5,26.5 C 442.833,27.1667 442.833,27.1667 441.5,26.5 Z"/></g>
<g><path style="opacity:0.004" fill="#000000" d="M 287.5,27.5 C 288.833,28.1667 288.833,28.1667 287.5,27.5 Z"/></g>
<g><path style="opacity:0.004" fill="#000000" d="M 396.5,32.5 C 397.833,33.1667 397.833,33.1667 396.5,32.5 Z"/></g>
<g><path style="opacity:0.004" fill="#000000" d="M 343.5,47.5 C 344.833,48.1667 344.833,48.1667 343.5,47.5 Z"/></g>
<g><path style="opacity:0.004" fill="#000000" d="M 88.5,50.5 C 89.8333,51.1667 89.8333,51.1667 88.5,50.5 Z"/></g>
<g><path style="opacity:0.004" fill="#000000" d="M 317.5,52.5 C 318.833,53.1667 318.833,53.1667 317.5,52.5 Z"/></g>
<g><path style="opacity:0.004" fill="#000000" d="M 106.5,56.5 C 107.833,57.1667 107.833,57.1667 106.5,56.5 Z"/></g>
<g><path style="opacity:0.004" fill="#000000" d="M 434.5,56.5 C 435.833,57.1667 435.833,57.1667 434.5,56.5 Z"/></g>
<g><path style="opacity:0.004" fill="#000000" d="M 458.5,56.5 C 459.833,57.1667 459.833,57.1667 458.5,56.5 Z"/></g>
<g><path style="opacity:0.004" fill="#000000" d="M 292.5,57.5 C 293.833,58.1667 293.833,58.1667 292.5,57.5 Z"/></g>
<g><path style="opacity:0.004" fill="#000000" d="M 307.5,71.5 C 308.833,72.1667 308.833,72.1667 307.5,71.5 Z"/></g>
<g><path style="opacity:0.004" fill="#000000" d="M 107.5,74.5 C 108.833,75.1667 108.833,75.1667 107.5,74.5 Z"/></g>
<g><path style="opacity:0.004" fill="#000000" d="M 101.5,76.5 C 102.833,77.1667 102.833,77.1667 101.5,76.5 Z"/></g>
<g><path style="opacity:0.004" fill="#000000" d="M 367.5,91.5 C 368.833,92.1667 368.833,92.1667 367.5,91.5 Z"/></g>
<g><path style="opacity:0.004" fill="#000000" d="M 318.5,93.5 C 319.833,94.1667 319.833,94.1667 318.5,93.5 Z"/></g>
<g><path style="opacity:0.004" fill="#000000" d="M 288.5,94.5 C 289.833,95.1667 289.833,95.1667 288.5,94.5 Z"/></g>
<g><path style="opacity:0.004" fill="#000000" d="M 124.5,98.5 C 125.833,99.1667 125.833,99.1667 124.5,98.5 Z"/></g>
<g><path style="opacity:0.004" fill="#000000" d="M 139.5,105.5 C 140.833,106.167 140.833,106.167 139.5,105.5 Z"/></g>
<g><path style="opacity:0.004" fill="#000000" d="M 283.5,106.5 C 284.833,107.167 284.833,107.167 283.5,106.5 Z"/></g>
<g><path style="opacity:0.004" fill="#000000" d="M 417.5,114.5 C 418.833,115.167 418.833,115.167 417.5,114.5 Z"/></g>
<g><path style="opacity:0.004" fill="#000000" d="M 391.5,118.5 C 392.833,119.167 392.833,119.167 391.5,118.5 Z"/></g>
<g><path style="opacity:0.004" fill="#000000" d="M 41.5,125.5 C 42.8333,126.167 42.8333,126.167 41.5,125.5 Z"/></g>
<g><path style="opacity:0.004" fill="#000000" d="M 70.5,126.5 C 71.8333,127.167 71.8333,127.167 70.5,126.5 Z"/></g>
<g><path style="opacity:0.004" fill="#000000" d="M 314.5,130.5 C 315.833,131.167 315.833,131.167 314.5,130.5 Z"/></g>
<g><path style="opacity:0.004" fill="#000000" d="M 295.5,135.5 C 296.833,136.167 296.833,136.167 295.5,135.5 Z"/></g>
<g><path style="opacity:0.004" fill="#000000" d="M 175.5,136.5 C 176.833,137.167 176.833,137.167 175.5,136.5 Z"/></g>
<g><path style="opacity:0.004" fill="#000000" d="M 389.5,141.5 C 390.833,142.167 390.833,142.167 389.5,141.5 Z"/></g>
<g><path style="opacity:0.004" fill="#000000" d="M 28.5,148.5 C 29.8333,149.167 29.8333,149.167 28.5,148.5 Z"/></g>
<g><path style="opacity:0.004" fill="#000000" d="M 439.5,152.5 C 440.833,153.167 440.833,153.167 439.5,152.5 Z"/></g>
<g><path style="opacity:0.004" fill="#000000" d="M 216.5,154.5 C 217.833,155.167 217.833,155.167 216.5,154.5 Z"/></g>
<g><path style="opacity:0.956" fill="#fefefe" d="M 239.5,160.5 C 246.167,160.5 252.833,160.5 259.5,160.5C 263.759,173.025 268.593,185.358 274,197.5C 275.15,199.754 275.484,202.087 275,204.5C 271.586,210.997 267.919,217.33 264,223.5C 259.438,211.378 254.605,199.378 249.5,187.5C 232.464,228.912 215.964,270.579 200,312.5C 196.429,313.792 192.595,314.458 188.5,314.5C 184.833,314.333 181.167,314.167 177.5,314C 188.305,287.253 199.305,260.586 210.5,234C 200.5,217.333 190.5,200.667 180.5,184C 188.188,183.169 195.855,183.335 203.5,184.5C 208.667,193.5 213.833,202.5 219,211.5C 226.4,194.705 233.233,177.705 239.5,160.5 Z"/></g>
<g><path style="opacity:0.004" fill="#000000" d="M 152.5,171.5 C 153.833,172.167 153.833,172.167 152.5,171.5 Z"/></g>
<g><path style="opacity:0.004" fill="#000000" d="M 315.5,175.5 C 316.833,176.167 316.833,176.167 315.5,175.5 Z"/></g>
<g><path style="opacity:0.004" fill="#000000" d="M 177.5,177.5 C 178.833,178.167 178.833,178.167 177.5,177.5 Z"/></g>
<g><path style="opacity:0.004" fill="#000000" d="M 291.5,180.5 C 292.833,181.167 292.833,181.167 291.5,180.5 Z"/></g>
<g><path style="opacity:0.961" fill="#fefefe" d="M 296.5,183.5 C 303.863,183.169 311.197,183.503 318.5,184.5C 308.626,201.083 298.626,217.583 288.5,234C 299.305,260.747 310.305,287.414 321.5,314C 314.144,314.831 306.811,314.665 299.5,313.5C 291.951,294.013 284.118,274.679 276,255.5C 270.415,264.335 265.081,273.335 260,282.5C 259.5,301.164 259.333,319.83 259.5,338.5C 252.833,338.5 246.167,338.5 239.5,338.5C 239.667,319.497 239.5,300.497 239,281.5C 235.292,275.249 231.459,269.083 227.5,263C 230.596,255.881 233.596,248.715 236.5,241.5C 240.583,248.668 244.916,255.668 249.5,262.5C 265.946,236.605 281.612,210.272 296.5,183.5 Z"/></g>
<g><path style="opacity:0.004" fill="#000000" d="M 442.5,193.5 C 443.833,194.167 443.833,194.167 442.5,193.5 Z"/></g>
<g><path style="opacity:0.004" fill="#000000" d="M 277.5,200.5 C 278.833,201.167 278.833,201.167 277.5,200.5 Z"/></g>
<g><path style="opacity:0.004" fill="#000000" d="M 318.5,206.5 C 319.833,207.167 319.833,207.167 318.5,206.5 Z"/></g>
<g><path style="opacity:0.004" fill="#000000" d="M 91.5,209.5 C 92.8333,210.167 92.8333,210.167 91.5,209.5 Z"/></g>
<g><path style="opacity:0.004" fill="#000000" d="M 412.5,210.5 C 413.833,211.167 413.833,211.167 412.5,210.5 Z"/></g>
<g><path style="opacity:0.004" fill="#000000" d="M 122.5,212.5 C 123.833,213.167 123.833,213.167 122.5,212.5 Z"/></g>
<g><path style="opacity:0.004" fill="#000000" d="M 96.5,223.5 C 97.8333,224.167 97.8333,224.167 96.5,223.5 Z"/></g>
<g><path style="opacity:0.004" fill="#000000" d="M 337.5,225.5 C 338.833,226.167 338.833,226.167 337.5,225.5 Z"/></g>
<g><path style="opacity:0.004" fill="#000000" d="M 341.5,225.5 C 342.833,226.167 342.833,226.167 341.5,225.5 Z"/></g>
<g><path style="opacity:0.004" fill="#000000" d="M 405.5,230.5 C 406.833,231.167 406.833,231.167 405.5,230.5 Z"/></g>
<g><path style="opacity:0.004" fill="#000000" d="M 190.5,240.5 C 191.833,241.167 191.833,241.167 190.5,240.5 Z"/></g>
<g><path style="opacity:0.004" fill="#000000" d="M 150.5,263.5 C 151.833,264.167 151.833,264.167 150.5,263.5 Z"/></g>
<g><path style="opacity:0.004" fill="#000000" d="M 91.5,272.5 C 92.8333,273.167 92.8333,273.167 91.5,272.5 Z"/></g>
<g><path style="opacity:0.004" fill="#000000" d="M 424.5,276.5 C 425.833,277.167 425.833,277.167 424.5,276.5 Z"/></g>
<g><path style="opacity:0.004" fill="#000000" d="M 184.5,277.5 C 185.833,278.167 185.833,278.167 184.5,277.5 Z"/></g>
<g><path style="opacity:0.004" fill="#000000" d="M 350.5,298.5 C 351.833,299.167 351.833,299.167 350.5,298.5 Z"/></g>
<g><path style="opacity:0.004" fill="#000000" d="M 49.5,303.5 C 50.8333,304.167 50.8333,304.167 49.5,303.5 Z"/></g>
<g><path style="opacity:0.004" fill="#000000" d="M 437.5,315.5 C 438.833,316.167 438.833,316.167 437.5,315.5 Z"/></g>
<g><path style="opacity:0.004" fill="#000000" d="M 78.5,325.5 C 79.8333,326.167 79.8333,326.167 78.5,325.5 Z"/></g>
<g><path style="opacity:0.004" fill="#000000" d="M 17.5,328.5 C 18.8333,329.167 18.8333,329.167 17.5,328.5 Z"/></g>
<g><path style="opacity:0.004" fill="#000000" d="M 453.5,329.5 C 454.833,330.167 454.833,330.167 453.5,329.5 Z"/></g>
<g><path style="opacity:0.004" fill="#000000" d="M 119.5,336.5 C 120.833,337.167 120.833,337.167 119.5,336.5 Z"/></g>
<g><path style="opacity:0.004" fill="#000000" d="M 451.5,354.5 C 452.833,355.167 452.833,355.167 451.5,354.5 Z"/></g>
<g><path style="opacity:0.85" fill="#fdfdfd" d="M 119.5,357.5 C 121.167,357.5 122.833,357.5 124.5,357.5C 124.5,366.167 124.5,374.833 124.5,383.5C 122.833,383.5 121.167,383.5 119.5,383.5C 119.5,374.833 119.5,366.167 119.5,357.5 Z"/></g>
<g><path style="opacity:0.84" fill="#fdfdfd" d="M 132.5,357.5 C 134.288,357.215 135.955,357.548 137.5,358.5C 141.858,363.69 146.024,369.023 150,374.5C 150.499,368.843 150.666,363.176 150.5,357.5C 152.167,357.5 153.833,357.5 155.5,357.5C 155.5,366.167 155.5,374.833 155.5,383.5C 153.801,383.66 152.134,383.494 150.5,383C 146.713,377.544 142.546,372.377 138,367.5C 137.501,372.823 137.334,378.156 137.5,383.5C 135.833,383.5 134.167,383.5 132.5,383.5C 132.5,374.833 132.5,366.167 132.5,357.5 Z"/></g>
<g><path style="opacity:0.823" fill="#fdfdfd" d="M 170.5,357.5 C 185.938,357.779 190.771,365.112 185,379.5C 177.264,386.363 170.264,385.696 164,377.5C 160.761,368.997 162.927,362.331 170.5,357.5 Z M 173.5,361.5 C 182.326,363.191 184.826,368.191 181,376.5C 177,380.5 173,380.5 169,376.5C 166.074,370.085 167.574,365.085 173.5,361.5 Z"/></g>
<g><path style="opacity:0.841" fill="#fdfdfd" d="M 230.5,357.5 C 237.833,357.5 245.167,357.5 252.5,357.5C 252.5,358.833 252.5,360.167 252.5,361.5C 249.5,361.5 246.5,361.5 243.5,361.5C 243.5,368.833 243.5,376.167 243.5,383.5C 241.833,383.5 240.167,383.5 238.5,383.5C 238.5,376.167 238.5,368.833 238.5,361.5C 235.833,361.5 233.167,361.5 230.5,361.5C 230.5,360.167 230.5,358.833 230.5,357.5 Z"/></g>
<g><path style="opacity:0.829" fill="#fdfdfd" d="M 258.5,357.5 C 260.167,357.5 261.833,357.5 263.5,357.5C 263.334,363.509 263.501,369.509 264,375.5C 267.171,380.414 270.837,380.747 275,376.5C 276.317,370.243 276.817,363.909 276.5,357.5C 278.167,357.5 279.833,357.5 281.5,357.5C 281.829,364.241 281.329,370.908 280,377.5C 275.615,384.388 269.782,385.888 262.5,382C 260.959,380.421 259.792,378.587 259,376.5C 258.5,370.175 258.334,363.842 258.5,357.5 Z"/></g>
<g><path style="opacity:0.82" fill="#fdfdfd" d="M 288.5,357.5 C 294.29,357.096 299.956,357.596 305.5,359C 312.664,365.657 313.33,372.991 307.5,381C 306.167,381.667 304.833,382.333 303.5,383C 298.511,383.499 293.511,383.666 288.5,383.5C 288.5,374.833 288.5,366.167 288.5,357.5 Z M 293.5,361.5 C 305.703,361.747 309.036,367.247 303.5,378C 300.312,379.316 296.978,379.816 293.5,379.5C 293.5,373.5 293.5,367.5 293.5,361.5 Z"/></g>
<g><path style="opacity:0.823" fill="#fefefe" d="M 318.5,357.5 C 320.167,357.5 321.833,357.5 323.5,357.5C 323.5,366.167 323.5,374.833 323.5,383.5C 321.833,383.5 320.167,383.5 318.5,383.5C 318.5,374.833 318.5,366.167 318.5,357.5 Z"/></g>
<g><path style="opacity:0.821" fill="#fdfdfd" d="M 338.5,357.5 C 352.444,357.283 357.611,363.95 354,377.5C 345.431,387.275 337.765,386.608 331,375.5C 328.856,367.465 331.356,361.465 338.5,357.5 Z M 341.5,361.5 C 349.815,363.462 352.315,368.462 349,376.5C 345,380.5 341,380.5 337,376.5C 333.924,369.851 335.424,364.851 341.5,361.5 Z"/></g>
<g><path style="opacity:0.807" fill="#fbfbfb" d="M 366.5,357.5 C 372.026,356.711 377.026,357.878 381.5,361C 380,361.833 378.833,363 378,364.5C 375.237,362.03 372.07,361.196 368.5,362C 367.426,362.739 366.759,363.739 366.5,365C 370.675,367.683 375.175,369.85 380,371.5C 382.54,376.097 381.707,379.93 377.5,383C 371.004,385.457 365.338,384.29 360.5,379.5C 361.145,378.354 361.978,377.354 363,376.5C 367.546,379.97 372.046,380.137 376.5,377C 373.915,374.016 370.582,372.349 366.5,372C 361.962,370.287 360.462,367.12 362,362.5C 363.025,360.313 364.525,358.646 366.5,357.5 Z"/></g>
<g><path style="opacity:0.004" fill="#000000" d="M 196.5,359.5 C 197.833,360.167 197.833,360.167 196.5,359.5 Z"/></g>
<g><path style="opacity:0.807" fill="#fcfcfc" d="M 210.5,357.5 C 213.85,357.335 217.183,357.502 220.5,358C 224.765,359.2 225.431,361.367 222.5,364.5C 220.442,362.923 218.108,361.923 215.5,361.5C 211.976,362.05 210.976,363.884 212.5,367C 217.193,367.71 221.36,369.543 225,372.5C 227.023,380.154 224.023,384.154 216,384.5C 211.876,384.272 208.376,382.772 205.5,380C 205.78,378.605 206.447,377.438 207.5,376.5C 211.135,379.138 215.135,379.971 219.5,379C 220.833,377.667 220.833,376.333 219.5,375C 215.15,373.551 210.984,371.718 207,369.5C 205.179,364.779 206.346,360.779 210.5,357.5 Z"/></g>
<g><path style="opacity:0.004" fill="#000000" d="M 379.5,382.5 C 380.833,383.167 380.833,383.167 379.5,382.5 Z"/></g>
<g><path style="opacity:0.004" fill="#000000" d="M 330.5,385.5 C 331.833,386.167 331.833,386.167 330.5,385.5 Z"/></g>
<g><path style="opacity:0.004" fill="#000000" d="M 415.5,388.5 C 416.833,389.167 416.833,389.167 415.5,388.5 Z"/></g>
<g><path style="opacity:0.004" fill="#000000" d="M 168.5,402.5 C 169.833,403.167 169.833,403.167 168.5,402.5 Z"/></g>
<g><path style="opacity:0.004" fill="#000000" d="M 374.5,403.5 C 375.833,404.167 375.833,404.167 374.5,403.5 Z"/></g>
<g><path style="opacity:0.004" fill="#000000" d="M 386.5,408.5 C 387.833,409.167 387.833,409.167 386.5,408.5 Z"/></g>
<g><path style="opacity:0.004" fill="#000000" d="M 315.5,412.5 C 316.833,413.167 316.833,413.167 315.5,412.5 Z"/></g>
<g><path style="opacity:0.004" fill="#000000" d="M 137.5,414.5 C 138.833,415.167 138.833,415.167 137.5,414.5 Z"/></g>
<g><path style="opacity:0.004" fill="#000000" d="M 183.5,419.5 C 184.833,420.167 184.833,420.167 183.5,419.5 Z"/></g>
<g><path style="opacity:0.004" fill="#000000" d="M 154.5,427.5 C 155.833,428.167 155.833,428.167 154.5,427.5 Z"/></g>
<g><path style="opacity:0.004" fill="#000000" d="M 140.5,434.5 C 141.833,435.167 141.833,435.167 140.5,434.5 Z"/></g>
<g><path style="opacity:0.004" fill="#000000" d="M 125.5,438.5 C 126.833,439.167 126.833,439.167 125.5,438.5 Z"/></g>
<g><path style="opacity:0.004" fill="#000000" d="M 208.5,442.5 C 209.833,443.167 209.833,443.167 208.5,442.5 Z"/></g>
<g><path style="opacity:0.004" fill="#000000" d="M 345.5,451.5 C 346.833,452.167 346.833,452.167 345.5,451.5 Z"/></g>
<g><path style="opacity:0.004" fill="#000000" d="M 205.5,460.5 C 206.833,461.167 206.833,461.167 205.5,460.5 Z"/></g>
<g><path style="opacity:0.004" fill="#000000" d="M 429.5,470.5 C 430.833,471.167 430.833,471.167 429.5,470.5 Z"/></g>
<g><path style="opacity:0.004" fill="#000000" d="M 422.5,479.5 C 423.833,480.167 423.833,480.167 422.5,479.5 Z"/></g>
</svg>
